# xmcd
#
# Track frame offsets:
#	150
#	12402
#	23085
#	35060
#	48917
#	61166
#	72886
#	86002
#	94876
#	107769
#	117135
#	130059
#	146652
#	151914
#	164404
#
# Disc length: 2336 seconds
#
# Revision: 0
# Processed by: cddbd v1.5.1PL2 Copyright (c) Steve Scherf et al.
# Submitted via: EasyCDDAExtractor 9.0.0.1
#
DISCID=c4091e0f
DTITLE=Various Artist - Blues, Gospels, Spirituals
DYEAR=2005
DGENRE=Gospel
TTITLE0=Golden Gate Quartet - Silent Night, Holy Night
TTITLE1=Alabama Singers - City of Heaven
TTITLE2=Clyde McPhatter and The Drifters - White Christmas
TTITLE3=Roy Milton - Christmas Time Blues
TTITLE4=Billy Ward - Christmas in Heaven
TTITLE5=Lowell Fulson - Best Wishes
TTITLE6=Alabama Singers - I Could Do Better
TTITLE7=Rosetta Tharpe - Jesus my Saviour
TTITLE8=Smokey Hogg - I Want my Baby for Christmas
TTITLE9=Marion Williams - Poor Little Jesus Boy
TTITLE10=Mahalia Jackson - Oh Lord Is It?
TTITLE11=Mahalia Jackson - There's not a Friend Like Jesus
TTITLE12=Marion Williams - Baby Born Today
TTITLE13=Julia Lee - Christmas Spirit
TTITLE14=Mahalia Jackson - Amazing Grace
EXTD=
EXTT0=
EXTT1=
EXTT2=
EXTT3=
EXTT4=
EXTT5=
EXTT6=
EXTT7=
EXTT8=
EXTT9=
EXTT10=
EXTT11=
EXTT12=
EXTT13=
EXTT14=
PLAYORDER=
